<svg xmlns="http://www.w3.org/2000/svg" viewBox="0 0 512 512" width="512" height="512">
  <defs>
    <linearGradient id="bg" x1="0%" y1="0%" x2="100%" y2="100%">
      <stop offset="0%" style="stop-color:#2669b3"/>
      <stop offset="100%" style="stop-color:#a9cf39"/>
    </linearGradient>
  </defs>
  <circle cx="256" cy="256" r="256" fill="url(#bg)"/>
  <g transform="translate(86, 86) scale(0.66)" fill="#ffffff">
    <path d="m504.501 391.508c4.142 0 7.5-3.358 7.5-7.5v-121.707c0-1.143-.265-2.295-.778-3.33l-48.997-102.803c-.81-1.699-2.23-3.032-3.978-3.733l-115.85-46.49-23.162-63.235c-1.083-2.955-3.895-4.92-7.042-4.92h-187.288c-1.565 0-3.721.78-4.973 1.886l-84.56 74.904c-1.607 1.424-2.527 3.467-2.527 5.614v207.185l-21.643-12.285c-6.234-2.12-9.968.055-11.203 6.522v51.181c-.056 3.53 2.432 6.701 5.934 7.446l42.629 9.101c2.671.568 5.505-.411 7.259-2.45l27.978-31.39c.921-1.033 1.538-2.301 1.783-3.663l23.163-128.821 59.454 28.597v215.097c0 4.121 3.393 7.5 7.499 7.5h53.54c2.95 0 5.625-1.729 6.837-4.418l28.654-63.575 82.139-64.615 85.621 129.149c1.354 2.113 3.749 3.459 6.318 3.459h65.692c4.142 0 7.5-3.358 7.5-7.5v-43.714c0-9.697-15-9.697-15 0v36.212h-47.903l47.903-149.061v73.856c.001 4.143 3.359 7.501 7.501 7.501zm-382.501-333.627 11.78 28.466c3.708 8.961 17.568 3.224 13.86-5.736l-11.514-27.823h170.827l32.138 87.742-119.868 113.05-56.366-136.2c-3.709-8.959-17.569-3.225-13.86 5.736l53.022 128.119-154.173-74.154v-53.513zm161.03 179.676-37.566 11.893 37.566-35.428zm-243.014 134.622-17.406-3.716 13.284-13.204zm7.83-178.453 24.687 11.874-24.686 84.082v-95.956zm-32.845 140.771 13.051 7.409-13.051 12.972zm56.194 12.606-17.159 19.251-5.926-24.323 38.122-129.842 8.488 4.083zm153.199 112.109h-27.028l41.875-32.941zm-41.193-7.942v-192.44l29.874 14.369c1.789.902 3.885 1.05 5.787.407l68.542-21.699 51.151 77.155zm253.241-1.703-138.412-208.777v-40.915l54.951-51.824c2.182-2.058 2.928-5.219 1.896-8.036l-5.539-15.123 100.606 40.373 46.505 97.575z"/>
  </g>
</svg>
