<svg width="60" height="60" viewBox="0 0 60 60" fill="none" xmlns="http://www.w3.org/2000/svg">
  <path d="M44.5 24.5C44.5 18.15 39.35 13 33 13C28.05 13 23.85 16.1 22.2 20.4C21.55 20.15 20.8 20 20 20C16.7 20 14 22.7 14 26C14 26.35 14.05 26.7 14.1 27.05C11.2 28.15 9 30.85 9 34C9 38.15 12.35 41.5 16.5 41.5H43C46.6 41.5 49.5 38.6 49.5 35C49.5 31.8 47.2 29.15 44.15 28.6C44.35 27.6 44.5 26.55 44.5 25.5V24.5Z" fill="#ffffff"/>
  <circle cx="30" cy="30" r="4.5" fill="none" stroke="#1a73e8" stroke-width="2"/>
  <path d="M30 22V25M30 35V38M22 30H25M35 30H38M24.34 24.34L26.46 26.46M33.54 33.54L35.66 35.66M35.66 24.34L33.54 26.46M26.46 33.54L24.34 35.66" stroke="#1a73e8" stroke-width="1.8" stroke-linecap="round"/>
</svg>