<svg width="230" height="60" viewBox="0 0 230 60" fill="none" xmlns="http://www.w3.org/2000/svg">
  <!-- Cloud emblem -->
  <path d="M44.5 24.5C44.5 18.15 39.35 13 33 13C28.05 13 23.85 16.1 22.2 20.4C21.55 20.15 20.8 20 20 20C16.7 20 14 22.7 14 26C14 26.35 14.05 26.7 14.1 27.05C11.2 28.15 9 30.85 9 34C9 38.15 12.35 41.5 16.5 41.5H43C46.6 41.5 49.5 38.6 49.5 35C49.5 31.8 47.2 29.15 44.15 28.6C44.35 27.6 44.5 26.55 44.5 25.5V24.5Z" fill="#ffffff"/>
  <circle cx="30" cy="30" r="4.5" fill="none" stroke="#1a73e8" stroke-width="2"/>
  <path d="M30 22V25M30 35V38M22 30H25M35 30H38M24.34 24.34L26.46 26.46M33.54 33.54L35.66 35.66M35.66 24.34L33.54 26.46M26.46 33.54L24.34 35.66" stroke="#1a73e8" stroke-width="1.8" stroke-linecap="round"/>
  <!-- CloudCoro wordmark -->
  <path d="M72.8 39.5C70.1 39.5 67.85 38.95 66.05 37.85C64.3 36.7 63.05 35.15 62.3 33.2L66.5 31.6C67 32.8 67.8 33.75 68.85 34.4C69.95 35.05 71.25 35.35 72.75 35.35C74.1 35.35 75.15 35.1 75.9 34.55C76.65 34.05 77 33.35 77 32.45C77 31.7 76.7 31.1 76.1 30.65C75.5 30.2 74.5 29.85 73.1 29.6L70.8 29.15C68.2 28.65 66.3 27.8 65.1 26.6C63.9 25.4 63.3 23.9 63.3 22.15C63.3 20.75 63.65 19.55 64.35 18.55C65.1 17.5 66.1 16.7 67.4 16.15C68.7 15.55 70.2 15.25 71.9 15.25C74.4 15.25 76.45 15.8 78.05 16.85C79.65 17.9 80.75 19.3 81.35 21.05L77.2 22.55C76.8 21.5 76.15 20.7 75.25 20.1C74.4 19.5 73.3 19.2 71.9 19.2C70.7 19.2 69.75 19.45 69.05 19.95C68.4 20.45 68.05 21.1 68.05 21.9C68.05 22.6 68.3 23.15 68.85 23.55C69.4 23.95 70.3 24.3 71.55 24.55L73.85 25C76.55 25.55 78.55 26.4 79.8 27.6C81.05 28.75 81.7 30.25 81.7 32.05C81.7 34.35 80.85 36.15 79.15 37.45C77.5 38.8 75.35 39.5 72.8 39.5Z" fill="#ffffff"/>
  <path d="M87.5 39.2V15.5H92.1V39.2H87.5Z" fill="#ffffff"/>
  <path d="M104.8 39.5C102.7 39.5 100.85 39.05 99.3 38.1C97.75 37.15 96.55 35.85 95.7 34.2C94.85 32.55 94.4 30.65 94.4 28.5C94.4 26.35 94.85 24.45 95.7 22.8C96.55 21.15 97.75 19.85 99.3 18.9C100.85 17.95 102.7 17.5 104.8 17.5C106.9 17.5 108.75 17.95 110.3 18.9C111.85 19.85 113.05 21.15 113.9 22.8C114.75 24.45 115.2 26.35 115.2 28.5C115.2 30.65 114.75 32.55 113.9 34.2C113.05 35.85 111.85 37.15 110.3 38.1C108.75 39.05 106.9 39.5 104.8 39.5ZM104.8 35.3C106.6 35.3 108 34.65 109.05 33.35C110.1 32 110.65 30.4 110.65 28.5C110.65 26.6 110.1 25 109.05 23.7C108 22.35 106.6 21.7 104.8 21.7C103 21.7 101.6 22.35 100.55 23.7C99.5 25 98.95 26.6 98.95 28.5C98.95 30.4 99.5 32 100.55 33.35C101.6 34.65 103 35.3 104.8 35.3Z" fill="#ffffff"/>
  <path d="M125.8 39.5C124.2 39.5 122.75 39.2 121.45 38.6C120.2 37.95 119.2 37.05 118.45 35.85V39.2H114.1V15.5H118.7V21.3C119.45 20.1 120.45 19.15 121.7 18.5C123 17.85 124.4 17.5 125.95 17.5C127.85 17.5 129.5 17.95 130.9 18.85C132.35 19.75 133.45 21.05 134.25 22.7C135.05 24.35 135.45 26.3 135.45 28.5C135.45 30.7 135.05 32.65 134.25 34.3C133.45 35.9 132.35 37.2 130.9 38.1C129.5 39.05 127.8 39.5 125.8 39.5ZM125 35.3C126.8 35.3 128.2 34.65 129.25 33.35C130.3 32 130.85 30.4 130.85 28.5C130.85 26.6 130.3 25 129.25 23.7C128.2 22.35 126.8 21.7 125 21.7C123.2 21.7 121.8 22.35 120.75 23.7C119.7 25 119.15 26.6 119.15 28.5C119.15 30.4 119.7 32 120.75 33.35C121.8 34.65 123.2 35.3 125 35.3Z" fill="#ffffff"/>
  <!-- "Coro" portion -->
  <path d="M149.8 39.5C147.7 39.5 145.85 39.05 144.3 38.1C142.75 37.15 141.55 35.85 140.7 34.2C139.85 32.55 139.4 30.65 139.4 28.5C139.4 26.35 139.85 24.45 140.7 22.8C141.55 21.15 142.75 19.85 144.3 18.9C145.85 17.95 147.7 17.5 149.8 17.5C151.5 17.5 153 17.85 154.3 18.55C155.6 19.2 156.65 20.15 157.45 21.35L153.8 23.6C153.3 22.85 152.65 22.3 151.85 21.9C151.1 21.5 150.2 21.3 149.2 21.3C147.55 21.3 146.2 21.95 145.15 23.25C144.15 24.55 143.65 26.3 143.65 28.5C143.65 30.7 144.15 32.45 145.15 33.75C146.2 35.05 147.55 35.7 149.2 35.7C150.2 35.7 151.1 35.5 151.85 35.1C152.65 34.7 153.3 34.15 153.8 33.4L157.45 35.65C156.65 36.85 155.6 37.8 154.3 38.45C153 39.15 151.5 39.5 149.8 39.5Z" fill="#ffffff"/>
  <path d="M168.3 39.5C166.2 39.5 164.35 39.05 162.8 38.1C161.25 37.15 160.05 35.85 159.2 34.2C158.35 32.55 157.9 30.65 157.9 28.5C157.9 26.35 158.35 24.45 159.2 22.8C160.05 21.15 161.25 19.85 162.8 18.9C164.35 17.95 166.2 17.5 168.3 17.5C170.4 17.5 172.25 17.95 173.8 18.9C175.35 19.85 176.55 21.15 177.4 22.8C178.25 24.45 178.7 26.35 178.7 28.5C178.7 30.65 178.25 32.55 177.4 34.2C176.55 35.85 175.35 37.15 173.8 38.1C172.25 39.05 170.4 39.5 168.3 39.5ZM168.3 35.3C170.1 35.3 171.5 34.65 172.55 33.35C173.6 32 174.15 30.4 174.15 28.5C174.15 26.6 173.6 25 172.55 23.7C171.5 22.35 170.1 21.7 168.3 21.7C166.5 21.7 165.1 22.35 164.05 23.7C163 25 162.45 26.6 162.45 28.5C162.45 30.4 163 32 164.05 33.35C165.1 34.65 166.5 35.3 168.3 35.3Z" fill="#ffffff"/>
  <path d="M184.4 39.2V17.8H191.6C193.4 17.8 194.9 18.1 196.1 18.7C197.35 19.3 198.3 20.15 198.9 21.25C199.55 22.35 199.85 23.6 199.85 25.05C199.85 26.5 199.5 27.75 198.8 28.85C198.15 29.9 197.2 30.7 195.95 31.25L200.3 39.2H195.3L191.4 31.9H189V39.2H184.4ZM189 28.1H191.3C192.5 28.1 193.4 27.8 194 27.2C194.65 26.55 194.95 25.75 194.95 24.8C194.95 23.85 194.65 23.1 194 22.5C193.4 21.9 192.5 21.6 191.3 21.6H189V28.1Z" fill="#ffffff"/>
  <path d="M211.3 39.5C209.2 39.5 207.35 39.05 205.8 38.1C204.25 37.15 203.05 35.85 202.2 34.2C201.35 32.55 200.9 30.65 200.9 28.5C200.9 26.35 201.35 24.45 202.2 22.8C203.05 21.15 204.25 19.85 205.8 18.9C207.35 17.95 209.2 17.5 211.3 17.5C213.4 17.5 215.25 17.95 216.8 18.9C218.35 19.85 219.55 21.15 220.4 22.8C221.25 24.45 221.7 26.35 221.7 28.5C221.7 30.65 221.25 32.55 220.4 34.2C219.55 35.85 218.35 37.15 216.8 38.1C215.25 39.05 213.4 39.5 211.3 39.5ZM211.3 35.3C213.1 35.3 214.5 34.65 215.55 33.35C216.6 32 217.15 30.4 217.15 28.5C217.15 26.6 216.6 25 215.55 23.7C214.5 22.35 213.1 21.7 211.3 21.7C209.5 21.7 208.1 22.35 207.05 23.7C206 25 205.45 26.6 205.45 28.5C205.45 30.4 206 32 207.05 33.35C208.1 34.65 209.5 35.3 211.3 35.3Z" fill="#ffffff"/>
</svg>