<?xml version="1.0" encoding="UTF-8" standalone="no"?>
<!-- Created with Inkscape (http://www.inkscape.org/) -->

<svg
   width="34.099953mm"
   height="6.9716921mm"
   viewBox="0 0 34.099953 6.9716921"
   version="1.1"
   id="svg1"
   xml:space="preserve"
   xmlns:inkscape="http://www.inkscape.org/namespaces/inkscape"
   xmlns:sodipodi="http://sodipodi.sourceforge.net/DTD/sodipodi-0.dtd"
   xmlns="http://www.w3.org/2000/svg"
   xmlns:svg="http://www.w3.org/2000/svg"><sodipodi:namedview
     id="namedview1"
     pagecolor="#ffffff"
     bordercolor="#000000"
     borderopacity="0.25"
     inkscape:showpageshadow="2"
     inkscape:pageopacity="0.0"
     inkscape:pagecheckerboard="0"
     inkscape:deskcolor="#d1d1d1"
     inkscape:document-units="mm"><inkscape:page
       x="0"
       y="0"
       width="34.099953"
       height="6.9716921"
       id="page2"
       margin="0"
       bleed="0" /></sodipodi:namedview><defs
     id="defs1" /><g
     inkscape:label="Layer 1"
     inkscape:groupmode="layer"
     id="layer1"
     transform="translate(54.927174,-77.267976)"><text
       xml:space="preserve"
       style="font-style:normal;font-variant:normal;font-weight:bold;font-stretch:normal;font-size:3.175px;font-family:sans-serif;-inkscape-font-specification:'sans-serif Bold';writing-mode:lr-tb;direction:ltr;fill:#ffffff;stroke-width:0.264583"
       x="-44.227345"
       y="82.001595"
       id="text1"
       inkscape:export-filename="Reinier-White.svg"
       inkscape:export-xdpi="364.32999"
       inkscape:export-ydpi="364.32999"><tspan
         sodipodi:role="line"
         id="tspan1"
         style="font-style:normal;font-variant:normal;font-weight:bold;font-stretch:normal;font-family:sans-serif;-inkscape-font-specification:'sans-serif Bold';fill:#ffffff;stroke-width:0.264583"
         x="-44.227345"
         y="82.001595">Rainier - CCX</tspan></text><path
       id="path1"
       style="fill:#2669b3;fill-opacity:1;stroke:none;stroke-width:0.79375;stroke-dasharray:none;stroke-opacity:1"
       sodipodi:type="inkscape:offset"
       inkscape:radius="0.15739293"
       inkscape:original="M 58.28125 81.675781 C 58.24915 81.675781 58.205347 81.692144 58.179688 81.714844 L 56.445312 83.25 C 56.412413 83.2792 56.394531 83.321234 56.394531 83.365234 L 56.394531 87.613281 L 55.951172 87.361328 C 55.823362 87.317828 55.746023 87.363374 55.720703 87.496094 L 55.720703 88.544922 C 55.719703 88.617322 55.770037 88.681986 55.841797 88.697266 L 56.716797 88.884766 C 56.771597 88.896466 56.829264 88.876184 56.865234 88.833984 L 57.439453 88.189453 C 57.458353 88.168253 57.471462 88.143134 57.476562 88.115234 L 57.951172 85.474609 L 59.169922 86.060547 L 59.169922 90.470703 C 59.169922 90.555203 59.238116 90.623047 59.322266 90.623047 L 60.421875 90.623047 C 60.482375 90.623047 60.535707 90.588403 60.560547 90.533203 L 61.148438 89.230469 L 62.832031 87.904297 L 64.587891 90.552734 C 64.615691 90.596034 64.664167 90.623047 64.716797 90.623047 L 66.064453 90.623047 C 66.149353 90.623047 66.21875 90.555673 66.21875 90.470703 L 66.21875 89.574219 C 66.21875 89.375409 65.910156 89.375409 65.910156 89.574219 L 65.910156 90.316406 L 64.927734 90.316406 L 65.910156 87.259766 L 65.910156 88.775391 C 65.910176 88.860291 65.979563 88.927734 66.064453 88.927734 C 66.149353 88.927734 66.21875 88.860361 66.21875 88.775391 L 66.21875 86.279297 C 66.21875 86.255897 66.214125 86.232138 66.203125 86.210938 L 65.197266 84.103516 C 65.180666 84.068716 65.151134 84.041644 65.115234 84.027344 L 62.740234 83.074219 L 62.265625 81.777344 C 62.243425 81.716744 62.185574 81.675781 62.121094 81.675781 L 58.28125 81.675781 z M 58.511719 81.984375 L 62.013672 81.984375 L 62.673828 83.783203 L 60.214844 86.099609 L 59.060547 83.308594 C 58.984547 83.124914 58.699341 83.242081 58.775391 83.425781 L 59.863281 86.052734 L 56.701172 84.53125 L 56.701172 83.435547 L 58.222656 82.087891 L 58.462891 82.671875 C 58.538891 82.855595 58.824077 82.738387 58.748047 82.554688 L 58.511719 81.984375 z M 62.882812 83.460938 L 64.945312 84.289062 L 65.900391 86.291016 L 64.669922 90.119141 L 61.832031 85.837891 L 61.832031 85 L 62.957031 83.9375 C 63.001731 83.8953 63.017194 83.829234 62.996094 83.771484 L 62.882812 83.460938 z M 56.701172 84.873047 L 57.208984 85.117188 L 56.701172 86.839844 L 56.701172 84.873047 z M 57.488281 85.251953 L 57.662109 85.335938 L 57.179688 88.017578 L 56.828125 88.412109 L 56.707031 87.914062 L 57.488281 85.251953 z M 61.523438 85.289062 L 61.523438 85.771484 L 60.753906 86.015625 L 61.523438 85.289062 z M 61.613281 86.066406 L 62.662109 87.648438 L 59.476562 90.154297 L 59.476562 86.207031 L 60.089844 86.501953 C 60.126544 86.520453 60.170034 86.523266 60.208984 86.509766 L 61.613281 86.066406 z M 56.029297 87.759766 L 56.296875 87.912109 L 56.029297 88.177734 L 56.029297 87.759766 z M 56.457031 88.185547 L 56.541016 88.53125 L 56.183594 88.455078 L 56.457031 88.185547 z M 60.626953 89.640625 L 60.322266 90.316406 L 59.767578 90.316406 L 60.626953 89.640625 z "
       d="m 58.28125,81.517578 c -0.08559,0 -0.140953,0.02335 -0.205078,0.08008 l -1.734375,1.535156 c -0.06781,0.06018 -0.105469,0.145778 -0.105469,0.232422 v 3.976563 l -0.207031,-0.117188 a 0.15740867,0.15740867 0 0 0 -0.02734,-0.01172 c -0.08893,-0.03027 -0.192989,-0.03918 -0.283203,0.01367 -0.09021,0.05285 -0.134777,0.148154 -0.152344,0.240235 a 0.15740867,0.15740867 0 0 0 -0.0039,0.0293 v 1.048828 c -0.0011,0.145833 0.101172,0.275782 0.246094,0.30664 l 0.875,0.1875 c 0.113173,0.02416 0.227088,-0.01706 0.300781,-0.103515 l 0.572266,-0.640625 c 0.03594,-0.04031 0.06354,-0.09395 0.07422,-0.152344 l 0.4375,-2.435547 0.94336,0.453125 v 4.310547 c 0,0.169181 0.1418,0.310547 0.310547,0.310547 h 1.099609 c 0.120585,0 0.231927,-0.07399 0.28125,-0.183594 l 0.572266,-1.267578 1.519531,-1.197266 1.660156,2.50586 c 3.26e-4,5.08e-4 0.0016,-5.06e-4 0.002,0 v 0.002 c 0.05689,0.08687 0.154227,0.140625 0.259766,0.140625 h 1.347656 c 0.168168,0 0.3125,-0.139879 0.3125,-0.310547 v -0.896484 c 0,-0.09042 -0.0418,-0.177456 -0.103516,-0.230469 -0.06172,-0.05301 -0.13661,-0.07617 -0.208984,-0.07617 -0.07237,0 -0.147268,0.02316 -0.208984,0.07617 -0.06172,0.05301 -0.103516,0.140049 -0.103516,0.230469 v 0.583984 h -0.607422 l 0.607422,-1.888672 v 0.50586 c 4e-5,0.170636 0.144247,0.310546 0.3125,0.310546 0.168167,0 0.3125,-0.139879 0.3125,-0.310546 v -2.496094 c 0,-0.04284 -0.0081,-0.09021 -0.03125,-0.136719 l -0.002,-0.0039 -1.003906,-2.103516 c -0.03418,-0.07164 -0.09424,-0.125706 -0.166016,-0.154297 l -2.310547,-0.925781 -0.449219,-1.232422 c -0.0447,-0.122016 -0.161829,-0.205078 -0.292968,-0.205078 z m 0.464844,0.625 h 3.158203 l 0.585937,1.597656 -2.216797,2.087891 -1.068359,-2.580078 c -0.03456,-0.08352 -0.104463,-0.148323 -0.181641,-0.173828 -0.07718,-0.0255 -0.155718,-0.01774 -0.222656,0.0098 -0.06694,0.0275 -0.127215,0.07584 -0.164062,0.148438 -0.03685,0.07259 -0.04043,0.170393 -0.0059,0.253906 l 0.929688,2.246094 -2.701172,-1.300781 v -0.925782 l 1.300781,-1.154297 0.15625,0.38086 a 0.15740867,0.15740867 0 0 0 0.002,0 c 0.03455,0.08352 0.104457,0.148316 0.181641,0.173828 0.07718,0.02551 0.155718,0.01774 0.222656,-0.0098 0.06694,-0.02751 0.127219,-0.07585 0.164063,-0.148437 0.03684,-0.07259 0.04042,-0.170391 0.0059,-0.253906 z m 4.40039,1.59375 1.683594,0.675781 0.900391,1.890625 -1.111328,3.455078 -2.628907,-3.966796 v -0.722657 l 1.074219,-1.015625 c 0.08619,-0.08136 0.115047,-0.204182 0.08203,-0.316406 z m -6.287109,1.388672 0.160156,0.07617 -0.160156,0.544922 z m 4.6875,1.126953 0.904297,1.363281 -2.816406,2.214844 v -3.371094 l 0.384765,0.183594 c 0.0756,0.03811 0.160639,0.04321 0.240235,0.01563 z m -4.242188,0.179688 -0.271484,1.513671 -0.123047,0.138672 -0.04102,-0.166015 z"
       transform="matrix(0.75258356,0,0,0.75258356,-96.742592,15.919186)" /></g></svg>
